<?xml version="1.0" encoding="utf-8"?>
<!-- Generator: Adobe Illustrator 16.0.3, SVG Export Plug-In . SVG Version: 6.00 Build 0)  -->
<!DOCTYPE svg PUBLIC "-//W3C//DTD SVG 1.1//EN" "http://www.w3.org/Graphics/SVG/1.1/DTD/svg11.dtd">
<svg version="1.1" id="Layer_1" xmlns="http://www.w3.org/2000/svg" xmlns:xlink="http://www.w3.org/1999/xlink" x="0px" y="0px"
	 width="65.673px" height="36.316px" viewBox="18.388 10.692 65.673 36.316" enable-background="new 18.388 10.692 65.673 36.316"
	 xml:space="preserve">
<g id="Layer_1_1_">
	<path fill="#FFFFFF" stroke="#FFFFFF" stroke-width="0.3" d="M29.816,21.932c-0.111-0.121-0.298-0.117-0.421-0.116
		c-0.015,0-0.032,0-0.044,0c-0.187,0-0.365-0.014-0.482-0.196c-0.143-0.212-0.141-0.882-0.14-1.169v-0.064v-7.438
		c0-0.062-0.003-0.137-0.005-0.216c-0.009-0.319-0.021-0.855,0.102-1.04c0.077-0.122,0.28-0.112,0.445-0.105
		c0.039,0.001,0.073,0.004,0.108,0.004c0.404,0,0.447-0.291,0.447-0.416c0-0.11-0.028-0.196-0.086-0.254
		c-0.095-0.096-0.236-0.084-0.348-0.071c-0.034,0.001-0.063,0.005-0.088,0.005h-1.607c-0.167,0-0.375,0-0.486,0.318l-2.876,8.258
		c-0.464-1.451-2.538-7.954-2.537-7.95c-0.014-0.043-0.023-0.089-0.034-0.129c-0.064-0.245-0.129-0.497-0.438-0.497h-1.675
		c-0.025,0-0.055-0.002-0.087-0.005c-0.112-0.012-0.252-0.024-0.348,0.071c-0.056,0.058-0.086,0.144-0.086,0.254
		c0,0.125,0.044,0.416,0.449,0.416c0.326,0,0.531,0.02,0.616,0.119c0.091,0.108,0.093,0.35,0.064,0.821c0,0-0.448,7.996-0.448,7.998
		c-0.046,0.958-0.097,1.287-0.795,1.287c-0.415,0-0.476,0.221-0.476,0.35c0,0.151,0.057,0.332,0.333,0.332
		c0.21,0,0.428-0.015,0.639-0.031c0.212-0.015,0.432-0.03,0.647-0.03c0.214,0,0.432,0.015,0.644,0.03
		c0.215,0.016,0.438,0.031,0.657,0.031c0.125,0,0.419,0,0.419-0.332c0-0.089-0.027-0.167-0.08-0.224
		c-0.116-0.127-0.313-0.126-0.442-0.126h-0.028c-0.288,0-0.494-0.077-0.63-0.239c-0.271-0.317-0.262-0.941-0.223-1.725l0.403-7.133
		c0.459,1.481,2.768,8.93,2.765,8.922l0.004,0.015c0.032,0.148,0.093,0.423,0.31,0.423c0.187,0,0.253-0.213,0.296-0.356
		c0.006-0.017,0.011-0.035,0.016-0.05l3.114-9.151v7.865v0.098c0.001,0.315,0.006,0.901-0.186,1.104
		c-0.139,0.143-0.416,0.228-0.609,0.228c-0.013,0-0.029,0-0.044,0c-0.125-0.002-0.311-0.005-0.422,0.115
		c-0.055,0.059-0.083,0.14-0.083,0.236c0,0.152,0.065,0.333,0.375,0.333c0.282,0,0.574-0.016,0.854-0.03
		c0.286-0.015,0.579-0.03,0.869-0.03c0.229,0,0.464,0.014,0.69,0.03c0.229,0.014,0.465,0.03,0.7,0.03
		c0.31,0,0.376-0.181,0.376-0.333C29.898,22.072,29.87,21.991,29.816,21.932z"/>
	<path fill="#FFFFFF" stroke="#FFFFFF" stroke-width="0.3" d="M35.38,16.398c-0.248,0-0.415-0.327-0.624-0.744
		c-0.301-0.589-0.674-1.325-1.373-1.325c-0.524,0-1.116,0.372-1.47,0.742c-0.667,0.714-1.064,1.822-1.064,2.962
		c0,1.808,1.049,3.757,2.748,3.757c0.665,0,1.246-0.273,1.679-0.791c0.006-0.008,0.017-0.021,0.028-0.038
		c0.092-0.121,0.173-0.223,0.276-0.223c0.115,0,0.207,0.117,0.207,0.263c0,0.105-0.052,0.295-0.489,0.757
		c-0.628,0.628-1.416,0.958-2.279,0.958c-1.899,0-3.502-1.972-3.502-4.309c0-2.516,1.854-4.641,4.051-4.641
		c0.567,0,1.415,0.2,1.935,0.643c0.2,0.171,0.184,0.495,0.169,0.757c-0.003,0.059-0.007,0.112-0.007,0.16
		c0,0.019,0.002,0.055,0.004,0.098c0.02,0.342,0.026,0.721-0.115,0.889C35.506,16.368,35.447,16.398,35.38,16.398z"/>
	<path fill="#FFFFFF" stroke="#FFFFFF" stroke-width="0.3" d="M47.049,21.932c-0.111-0.121-0.299-0.117-0.421-0.116
		c-0.017,0-0.032,0-0.046,0c-0.186,0-0.364-0.014-0.482-0.196c-0.143-0.212-0.141-0.882-0.141-1.169v-0.064v-7.438
		c0-0.062-0.001-0.137-0.003-0.216c-0.009-0.319-0.021-0.855,0.102-1.04c0.077-0.122,0.28-0.112,0.445-0.105
		c0.039,0.001,0.074,0.004,0.107,0.004c0.404,0,0.448-0.291,0.448-0.416c0-0.11-0.028-0.196-0.086-0.254
		c-0.094-0.096-0.234-0.084-0.349-0.071c-0.032,0.001-0.062,0.005-0.087,0.005H44.93c-0.167,0-0.373,0-0.486,0.318l-2.876,8.258
		c-0.463-1.451-2.538-7.954-2.538-7.95c-0.014-0.043-0.023-0.089-0.035-0.129c-0.063-0.245-0.127-0.497-0.438-0.497h-1.676
		c-0.025,0-0.054-0.002-0.088-0.005c-0.112-0.013-0.25-0.024-0.348,0.071c-0.056,0.058-0.084,0.144-0.084,0.254
		c0,0.125,0.042,0.416,0.447,0.416c0.326,0,0.532,0.02,0.616,0.119c0.091,0.108,0.094,0.35,0.065,0.821c0,0-0.448,7.996-0.448,7.998
		c-0.045,0.958-0.097,1.287-0.795,1.287c-0.414,0-0.477,0.221-0.477,0.35c0,0.151,0.057,0.332,0.331,0.332
		c0.212,0,0.43-0.015,0.639-0.031c0.213-0.015,0.433-0.03,0.648-0.03c0.214,0,0.432,0.015,0.644,0.03
		c0.214,0.016,0.438,0.031,0.656,0.031c0.125,0,0.419,0,0.419-0.332c0-0.089-0.028-0.167-0.08-0.224
		c-0.116-0.127-0.313-0.126-0.441-0.126h-0.028c-0.289,0-0.495-0.077-0.631-0.239c-0.27-0.317-0.261-0.941-0.221-1.725l0.403-7.133
		c0.459,1.481,2.768,8.93,2.765,8.922l0.003,0.015c0.034,0.148,0.093,0.423,0.311,0.423c0.185,0,0.252-0.213,0.295-0.356
		c0.007-0.017,0.014-0.035,0.017-0.05l3.112-9.151v7.865l0.001,0.098c0.003,0.315,0.007,0.901-0.186,1.104
		c-0.136,0.143-0.415,0.228-0.609,0.228c-0.013,0-0.027,0-0.044,0c-0.123-0.002-0.308-0.005-0.42,0.115
		c-0.055,0.059-0.084,0.14-0.084,0.236c0,0.152,0.066,0.333,0.376,0.333c0.282,0,0.572-0.016,0.854-0.03
		c0.284-0.015,0.579-0.03,0.869-0.03c0.229,0,0.464,0.014,0.691,0.03c0.227,0.014,0.462,0.03,0.699,0.03
		c0.31,0,0.376-0.181,0.376-0.333C47.132,22.072,47.103,21.991,47.049,21.932z"/>
	<path fill="#FFFFFF" stroke="#FFFFFF" stroke-width="0.3" d="M50.518,17.718c0.515-0.296,0.515-0.296,0.515-0.952v-0.828
		c0-0.982-0.062-1.579-0.884-1.579c-0.791,0-1.277,0.438-1.672,1.509c-0.001,0.001-0.032,0.087-0.032,0.087
		c-0.095,0.252-0.192,0.512-0.441,0.648c-0.154,0.097-0.488,0.255-0.695,0.255c-0.198,0-0.295-0.11-0.295-0.337
		c0-0.531,0.357-1.096,0.665-1.417c0.74-0.822,1.818-1.333,2.809-1.333c0.664,0,1.154,0.178,1.462,0.529
		c0.35,0.358,0.342,0.817,0.334,1.261l-0.002,0.189v4.437v0.032c0,0.304,0,1.01,0.229,1.265c0.057,0.063,0.123,0.093,0.203,0.093
		c0.195,0,0.328-0.158,0.437-0.285c0.084-0.1,0.154-0.185,0.251-0.185c0.114,0,0.208,0.117,0.208,0.263
		c0,0.247-0.251,0.509-0.385,0.648l-0.014,0.016c-0.313,0.27-0.722,0.573-1.151,0.573c-0.554,0-0.775-0.611-0.922-1.016
		c-0.04-0.117-0.099-0.276-0.132-0.302c0.002,0.001,0.012,0.004,0.019,0.004c0.013,0,0.022-0.004,0.022-0.004
		c-0.028,0.014-0.12,0.105-0.2,0.188c-0.405,0.403-1.245,1.241-2.293,1.241c-0.74,0-1.525-0.559-1.525-1.594
		c0-1.351,1.327-2.146,2.207-2.67l0.098-0.062C49.334,18.394,50.518,17.718,50.518,17.718z M49.507,18.969
		c-0.595,0.375-1.146,0.834-1.146,1.668c0,0.737,0.517,0.998,0.959,0.998c0.481,0,0.987-0.268,1.354-0.715
		c0.342-0.438,0.356-0.726,0.356-1.334v-1.127c0-0.014,0.002-0.033,0.002-0.056c0.015-0.286-0.014-0.352-0.026-0.368
		c0.005,0.002,0.01,0.007,0.017,0.007c0.003,0,0.004,0,0.004,0c-0.013,0.003-0.05,0.023-0.069,0.036
		c-0.024,0.014-0.045,0.025-0.066,0.033l0.015-0.006L49.507,18.969z"/>
	<path fill="#FFFFFF" stroke="#FFFFFF" stroke-width="0.3" d="M53.905,20.091l0.003-0.026c0.015-0.158,0.048-0.488,0.296-0.488
		c0.271,0,0.333,0.363,0.404,0.782c0.132,0.76,0.31,1.799,1.602,1.799c0.854,0,1.763-0.607,1.763-1.733
		c0-1.042-0.724-1.426-1.401-1.703l-0.138-0.055c-0.957-0.377-2.268-0.893-2.268-2.426c0-0.712,0.293-1.348,0.85-1.84
		c0.491-0.427,1.101-0.633,1.865-0.633c0.399,0,1.226,0.123,1.612,0.317c0.271,0.158,0.251,0.501,0.233,0.776
		c-0.002,0.062-0.007,0.121-0.007,0.175c0,0.013,0.004,0.047,0.006,0.086c0.023,0.334,0.04,0.706-0.094,0.869
		c-0.043,0.053-0.101,0.081-0.163,0.081c-0.191,0-0.271-0.226-0.372-0.51c-0.188-0.531-0.443-1.261-1.491-1.261
		c-0.53,0-1.304,0.457-1.304,1.281c0,0.933,0.742,1.246,1.604,1.609c1.034,0.434,2.209,0.927,2.209,2.668
		c0,1.976-1.755,2.863-2.997,2.863c-0.521,0-1.444-0.233-1.991-0.58c-0.273-0.146-0.27-0.42-0.267-0.687v-0.09
		C53.858,21.361,53.905,20.099,53.905,20.091z"/>
	<path fill="#FFFFFF" stroke="#FFFFFF" stroke-width="0.3" d="M63.374,21.372c0-0.118-0.088-0.246-0.205-0.246
		c-0.079,0-0.146,0.066-0.269,0.186c-0.192,0.189-0.484,0.476-0.831,0.476c-0.185,0-0.334-0.064-0.45-0.193
		c-0.348-0.387-0.348-1.276-0.347-1.864V19.69v-4.779c0-0.186,0.029-0.254,0.051-0.28c0.039-0.04,0.134-0.036,0.251-0.029
		c0.047,0.001,0.104,0.004,0.16,0.004h0.853c0.063,0,0.12,0.004,0.167,0.006c0.137,0.008,0.243,0.015,0.322-0.068
		c0.075-0.082,0.086-0.213,0.086-0.345c0-0.138,0-0.37-0.237-0.37c0,0-1.509,0-1.501,0c-0.12-0.011-0.15-0.022-0.15-0.265v-1.338
		c0-0.28-0.121-0.338-0.225-0.338c-0.146,0-0.217,0.171-0.243,0.238c-0.34,0.88-0.759,1.332-1.419,1.86
		c-0.012,0.01-0.021,0.021-0.036,0.032c-0.077,0.072-0.182,0.167-0.182,0.33c0,0.07,0.023,0.133,0.068,0.179
		c0.104,0.107,0.291,0.1,0.46,0.086c0.019-0.002,0.038-0.005,0.044-0.005c0.036,0,0.068,0,0.097-0.001
		c0.065-0.001,0.143-0.002,0.156,0.012c0.009,0.007,0.028,0.042,0.028,0.218v4.855l-0.003,0.268
		c-0.007,0.731-0.013,1.559,0.356,2.14c0.259,0.391,0.698,0.623,1.177,0.623c0.534,0,1.061-0.262,1.484-0.735
		C63.13,21.902,63.374,21.623,63.374,21.372z"/>
	<path fill="#FFFFFF" stroke="#FFFFFF" stroke-width="0.3" d="M69.749,20.441c-0.093,0-0.172,0.088-0.32,0.247
		c-0.307,0.342-0.882,0.978-1.936,0.978c-1.873,0-2.854-1.924-2.854-3.823c0-0.23,0.021-0.361,0.068-0.415
		c0.054-0.059,0.184-0.058,0.377-0.058h0.078h4.618c0.086,0,0.283-0.042,0.283-0.436c0-0.644-0.231-1.468-0.553-1.96
		c-0.51-0.767-1.338-1.207-2.275-1.207c-1.063,0-2.033,0.446-2.813,1.287c-0.773,0.832-1.116,1.825-1.116,3.22
		c0,2.493,1.565,4.446,3.564,4.446c0.999,0,1.764-0.334,2.479-1.087l0.01-0.011c0.426-0.45,0.614-0.732,0.614-0.917
		C69.972,20.558,69.875,20.441,69.749,20.441z M65.127,15.534c0.437-0.753,1.147-1.205,1.896-1.205c0.378,0,0.9,0.094,1.25,0.541
		c0.225,0.298,0.371,0.704,0.371,1.032c0,0.35-0.149,0.547-0.489,0.642c-0.429,0.127-1.276,0.146-1.741,0.146h-1.234
		c-0.023,0-0.047,0-0.075,0.002c-0.104,0.003-0.26,0.01-0.318-0.052c-0.01-0.011-0.023-0.031-0.023-0.081
		C64.76,16.299,64.984,15.749,65.127,15.534z"/>
	<path fill="#FFFFFF" stroke="#FFFFFF" stroke-width="0.3" d="M74.404,13.86c-0.812,0-1.358,0.828-1.653,1.273
		c-0.041,0.063-0.087,0.131-0.12,0.18c-0.003-0.039-0.005-0.095,0-0.178c0-0.019,0.001-0.037,0.001-0.051V14.16v-0.026
		c0.001-0.09,0.002-0.213-0.071-0.296c-0.028-0.031-0.081-0.07-0.168-0.07c-0.145,0-0.235,0.129-0.304,0.221
		c-0.015,0.023-0.031,0.042-0.049,0.067c-0.239,0.352-0.88,0.816-1.219,0.939c-0.019,0.008-0.041,0.016-0.063,0.023
		c-0.132,0.049-0.355,0.128-0.355,0.402c0,0.159,0.113,0.262,0.285,0.262h0.197c0.179,0,0.317,0.042,0.368,0.114
		c0.128,0.16,0.126,0.843,0.126,1.065v0.063v3.533c0,0.105,0.002,0.208,0.005,0.308c0.016,0.709-0.004,1.052-0.6,1.123
		c-0.024,0.001-0.051,0.003-0.078,0.004c-0.153,0.01-0.439,0.025-0.439,0.372c0,0.189,0.117,0.304,0.315,0.304
		c0.236,0,0.48-0.015,0.718-0.029c0.239-0.012,0.485-0.027,0.728-0.027c0.224,0,0.448,0.012,0.687,0.026
		c0.243,0.014,0.495,0.03,0.745,0.03c0.175,0,0.284-0.124,0.284-0.322c0-0.316-0.292-0.34-0.449-0.351
		c-0.023-0.002-0.047-0.003-0.067-0.007c-0.597-0.068-0.617-0.412-0.599-1.121c0.002-0.101,0.005-0.201,0.005-0.309v-2.968v-0.089
		c-0.001-0.697-0.003-1.158,0.331-1.739c0.162-0.252,0.408-0.633,0.695-0.633c0.145,0,0.229,0.11,0.355,0.29
		c0.132,0.191,0.299,0.428,0.62,0.428c0.437,0,0.739-0.356,0.739-0.867C75.373,14.297,74.957,13.86,74.404,13.86z"/>
	<path fill="#FFFFFF" stroke="#FFFFFF" stroke-width="0.3" d="M23.52,26.275v-0.056c0-0.239,0.001-0.795-0.085-0.975
		c-0.079-0.18-0.24-0.194-0.441-0.194h-0.015c-0.07,0.001-0.19,0.001-0.266-0.082c-0.027-0.032-0.061-0.085-0.061-0.171
		c0-0.071,0.022-0.132,0.064-0.178c0.05-0.056,0.128-0.085,0.224-0.085c0.137,0,0.273,0.01,0.406,0.023
		c0.128,0.011,0.261,0.022,0.39,0.022c0.111,0,0.22-0.011,0.337-0.022c0.114-0.014,0.233-0.023,0.354-0.023
		c0.26,0,0.287,0.175,0.287,0.252c0,0.174-0.128,0.263-0.385,0.263c-0.332,0-0.348,0.183-0.356,0.634
		c0,0.057-0.001,0.117-0.003,0.18c0-0.005,0,3.418,0,3.418c0,0.678,0,1.266-0.519,1.822c-0.386,0.413-0.953,0.613-1.732,0.613
		c-0.422,0-1.203-0.068-1.711-0.528c-0.563-0.479-0.562-1.141-0.561-1.843v-0.064v-3.443v-0.133
		c0.002-0.291,0.003-0.484-0.069-0.565c-0.056-0.063-0.182-0.091-0.405-0.091c-0.214,0-0.323-0.086-0.323-0.252
		c0-0.081,0.022-0.146,0.064-0.191c0.043-0.05,0.105-0.074,0.188-0.074c0.171,0,0.339,0.011,0.502,0.023
		c0.159,0.011,0.326,0.021,0.49,0.021c0.167,0,0.335-0.01,0.5-0.021c0.167-0.013,0.338-0.023,0.509-0.023
		c0.156,0,0.252,0.102,0.252,0.265c0,0.167-0.112,0.252-0.332,0.252c-0.224,0-0.348,0.028-0.403,0.092
		c-0.073,0.08-0.071,0.273-0.07,0.564l0,0.132v3.092v0.107c-0.001,0.468-0.004,1.176,0.173,1.525
		c0.298,0.608,1.104,0.657,1.344,0.657c0.34,0,0.968-0.073,1.358-0.556c0.292-0.373,0.292-0.822,0.292-1.34v-0.043v-3.008h0
		L23.52,26.275L23.52,26.275z"/>
	<path fill="#FFFFFF" stroke="#FFFFFF" stroke-width="0.3" d="M29.357,31.146c-0.013-0.002-0.027-0.004-0.037-0.005
		c-0.308-0.036-0.321-0.184-0.311-0.606c0.002-0.06,0.003-0.118,0.003-0.182v-1.734v-0.088c0.001-0.51,0.001-1.037-0.283-1.492
		c-0.264-0.418-0.644-0.633-1.126-0.633c-0.604,0-1.035,0.458-1.292,0.73c-0.019,0.02-0.04,0.041-0.06,0.062v-0.502v-0.018
		c0.001-0.064,0.002-0.152-0.054-0.215c-0.022-0.024-0.064-0.054-0.125-0.054c-0.105,0-0.168,0.088-0.21,0.146
		c-0.009,0.012-0.015,0.024-0.029,0.04c-0.131,0.193-0.495,0.46-0.688,0.53c-0.009,0.003-0.021,0.009-0.033,0.014
		c-0.083,0.029-0.235,0.085-0.235,0.279c0,0.119,0.083,0.199,0.207,0.199h0.115c0.108,0,0.165,0.026,0.182,0.05
		c0.029,0.037,0.064,0.167,0.062,0.59v0.037v2.061c0,0.063,0.002,0.122,0.003,0.18c0.011,0.423-0.003,0.572-0.309,0.606
		c-0.014,0.001-0.028,0.001-0.044,0.003c-0.087,0.007-0.295,0.017-0.295,0.262c0,0.103,0.059,0.221,0.226,0.221
		c0.14,0,0.282-0.012,0.419-0.021c0.139-0.013,0.281-0.024,0.418-0.024c0.126,0,0.256,0.012,0.393,0.021
		c0.142,0.013,0.29,0.024,0.438,0.024c0.126,0,0.207-0.09,0.207-0.231c0-0.225-0.21-0.242-0.301-0.251
		c-0.013-0.002-0.026-0.003-0.038-0.003c-0.307-0.035-0.32-0.184-0.31-0.606c0.001-0.058,0.003-0.116,0.003-0.18v-1.844
		c0-0.431,0.022-0.636,0.258-0.939c0.217-0.278,0.501-0.431,0.802-0.431c0.322,0,0.6,0.163,0.745,0.438
		c0.146,0.271,0.146,0.691,0.146,1.027v1.747c0,0.063,0.002,0.121,0.004,0.18c0.01,0.425-0.004,0.573-0.311,0.607
		c-0.012,0.001-0.026,0.001-0.043,0.003c-0.088,0.007-0.295,0.016-0.295,0.262c0,0.102,0.059,0.222,0.226,0.222
		c0.14,0,0.283-0.013,0.421-0.024c0.138-0.011,0.28-0.021,0.417-0.021c0.127,0,0.255,0.012,0.393,0.021
		c0.143,0.014,0.29,0.025,0.438,0.025c0.126,0,0.207-0.091,0.207-0.233C29.656,31.17,29.446,31.153,29.357,31.146z"/>
	<path fill="#FFFFFF" stroke="#FFFFFF" stroke-width="0.3" d="M30.656,25.041c0-0.37,0.22-0.66,0.5-0.66
		c0.295,0,0.472,0.325,0.472,0.638c0,0.396-0.198,0.66-0.491,0.66C30.859,25.678,30.656,25.411,30.656,25.041z M31.547,30.355
		c0,0.063,0,0.122-0.003,0.18c-0.01,0.423,0.004,0.572,0.31,0.606c0.013,0.001,0.025,0.001,0.04,0.005
		c0.089,0.007,0.299,0.023,0.299,0.249c0,0.143-0.082,0.234-0.207,0.234c-0.147,0-0.295-0.015-0.438-0.027
		c-0.138-0.01-0.268-0.021-0.394-0.021c-0.138,0-0.279,0.013-0.417,0.023c-0.139,0.01-0.28,0.024-0.422,0.024
		c-0.166,0-0.225-0.12-0.225-0.223c0-0.246,0.206-0.255,0.296-0.261c0.015-0.001,0.031-0.003,0.043-0.004
		c0.306-0.035,0.319-0.183,0.31-0.605c0-0.058-0.003-0.118-0.003-0.181v-2.06v-0.038c0.002-0.422-0.033-0.554-0.063-0.589
		c-0.017-0.024-0.074-0.052-0.181-0.052h-0.116c-0.124,0-0.207-0.079-0.207-0.199c0-0.193,0.153-0.25,0.235-0.279
		c0.013-0.003,0.024-0.01,0.036-0.013c0.19-0.069,0.556-0.337,0.687-0.531c0.012-0.015,0.021-0.028,0.03-0.04
		c0.041-0.059,0.104-0.146,0.209-0.146c0.064,0,0.103,0.03,0.126,0.054c0.055,0.063,0.055,0.15,0.054,0.215v0.017L31.547,30.355
		L31.547,30.355z"/>
	<path fill="#FFFFFF" stroke="#FFFFFF" stroke-width="0.3" d="M36.918,26.587c-0.045-0.047-0.101-0.044-0.142-0.042
		c-0.009,0-0.019,0-0.028,0h-1.303c-0.058,0-0.234,0-0.234,0.209c0,0.229,0.256,0.229,0.341,0.229c0.058,0,0.246,0.014,0.246,0.186
		c0,0.087-0.051,0.248-0.084,0.354c-0.01,0.03-0.02,0.061-0.026,0.086c0.001-0.008-0.685,1.854-0.947,2.563
		c-0.227-0.694-0.815-2.479-0.815-2.479l-0.012-0.036c-0.04-0.12-0.123-0.365-0.123-0.476c0-0.155,0.144-0.196,0.227-0.196
		c0.006,0,0.016,0,0.028,0.001c0.077,0.005,0.194,0.013,0.267-0.066c0.035-0.038,0.054-0.088,0.054-0.146
		c0-0.07-0.019-0.126-0.056-0.167c-0.058-0.065-0.139-0.064-0.198-0.063h-0.015h-1.603h-0.015c-0.049-0.001-0.117-0.002-0.167,0.054
		c-0.034,0.036-0.05,0.089-0.05,0.156c0,0.152,0.091,0.229,0.263,0.229c0.281,0.017,0.321,0.136,0.436,0.493
		c0,0,0.023,0.072,0.024,0.074c0,0,1.283,3.842,1.285,3.847l0.051,0.138c0.027,0.111,0.094,0.183,0.175,0.183
		c0.123,0,0.185-0.169,0.227-0.277c0.005-0.014,0.01-0.026,0.011-0.03l0.004-0.005l0.002-0.01c0,0,1.27-3.403,1.27-3.403
		c0.019-0.05,0.036-0.102,0.055-0.156c0.133-0.377,0.284-0.806,0.59-0.855c0.009-0.001,0.016-0.002,0.026-0.002
		c0.077-0.011,0.283-0.034,0.283-0.249C36.965,26.71,36.965,26.638,36.918,26.587z"/>
	<path fill="#FFFFFF" stroke="#FFFFFF" stroke-width="0.3" d="M40.798,30.301c-0.073,0-0.126,0.062-0.216,0.16
		c-0.174,0.196-0.501,0.557-1.095,0.557c-1.062,0-1.617-1.101-1.617-2.188c0-0.16,0.021-0.2,0.029-0.208
		c0.019-0.021,0.105-0.021,0.188-0.021h0.044h2.684c0.048,0,0.206-0.021,0.206-0.298c0-0.383-0.137-0.875-0.329-1.169
		c-0.304-0.459-0.798-0.723-1.356-0.723c-0.627,0-1.205,0.264-1.663,0.762c-0.462,0.497-0.667,1.083-0.667,1.909
		c0,1.479,0.931,2.638,2.117,2.638c0.594,0,1.047-0.196,1.476-0.646c0.326-0.347,0.37-0.483,0.37-0.569
		C40.97,30.389,40.894,30.301,40.798,30.301z M38.149,27.511c0.246-0.426,0.645-0.679,1.065-0.679c0.21,0,0.5,0.052,0.692,0.3
		c0.125,0.165,0.208,0.389,0.208,0.571c0,0.184-0.074,0.279-0.254,0.329c-0.245,0.073-0.73,0.083-1,0.083h-0.718
		c-0.013,0-0.028,0-0.043,0.001c-0.034,0.004-0.135,0.006-0.154-0.016c0,0,0-0.004,0-0.014
		C37.944,27.943,38.069,27.631,38.149,27.511z"/>
	<path fill="#FFFFFF" stroke="#FFFFFF" stroke-width="0.3" d="M43.962,26.471c-0.488,0-0.811,0.482-0.987,0.75v-0.528v-0.017
		c0-0.063,0.001-0.15-0.055-0.212c-0.021-0.024-0.063-0.056-0.126-0.056c-0.104,0-0.168,0.09-0.209,0.147
		c-0.01,0.011-0.017,0.023-0.03,0.04c-0.13,0.193-0.495,0.46-0.686,0.531c-0.01,0.003-0.021,0.009-0.035,0.013
		c-0.083,0.03-0.234,0.085-0.234,0.278c0,0.12,0.083,0.199,0.207,0.199h0.115c0.108,0,0.165,0.027,0.181,0.05
		c0.031,0.037,0.065,0.168,0.064,0.591v0.037v2.061c0,0.063,0,0.122,0.002,0.18c0.009,0.423-0.003,0.572-0.309,0.606
		c-0.013,0-0.028,0.001-0.043,0.003c-0.087,0.007-0.295,0.016-0.295,0.262c0,0.102,0.059,0.221,0.225,0.221
		c0.141,0,0.284-0.012,0.422-0.024c0.137-0.01,0.279-0.021,0.417-0.021c0.127,0,0.255,0.012,0.393,0.021
		c0.143,0.013,0.289,0.024,0.437,0.024c0.127,0,0.208-0.09,0.208-0.232c0-0.225-0.211-0.241-0.301-0.25
		c-0.013-0.002-0.027-0.003-0.04-0.006c-0.305-0.034-0.32-0.183-0.308-0.605c0.001-0.058,0.003-0.116,0.003-0.179v-1.731v-0.051
		c-0.001-0.409-0.001-0.655,0.183-0.98c0.09-0.138,0.226-0.348,0.37-0.348c0.064,0,0.105,0.054,0.172,0.149
		c0.078,0.113,0.185,0.268,0.394,0.268c0.278,0,0.472-0.226,0.472-0.55C44.569,26.746,44.308,26.471,43.962,26.471z"/>
	<path fill="#FFFFFF" stroke="#FFFFFF" stroke-width="0.3" d="M44.936,30.135l0.002-0.014c0.01-0.098,0.032-0.327,0.215-0.327
		c0.191,0,0.231,0.24,0.274,0.493c0.078,0.45,0.173,1.011,0.887,1.011c0.478,0,0.983-0.339,0.983-0.964
		c0-0.518-0.301-0.747-0.787-0.946c0.001,0-0.075-0.029-0.075-0.029c-0.568-0.225-1.348-0.529-1.348-1.459
		c0-0.427,0.176-0.811,0.507-1.106c0.294-0.259,0.657-0.384,1.112-0.384c0.234,0,0.724,0.073,0.958,0.193
		c0.183,0.107,0.17,0.333,0.158,0.496c-0.002,0.038-0.003,0.07-0.003,0.101c0,0.006,0,0.027,0.003,0.044
		c0.014,0.205,0.023,0.434-0.066,0.542c-0.033,0.04-0.076,0.064-0.125,0.064c-0.141,0-0.198-0.16-0.256-0.327
		c-0.104-0.298-0.249-0.704-0.829-0.704c-0.294,0-0.717,0.249-0.717,0.697c0,0.512,0.42,0.689,0.908,0.893
		c0.617,0.258,1.313,0.552,1.313,1.597c0,1.073-0.91,1.712-1.788,1.712c-0.308,0-0.855-0.137-1.177-0.342
		c-0.178-0.098-0.176-0.28-0.174-0.442l0-0.052C44.909,30.879,44.936,30.144,44.936,30.135z"/>
	<g>
		<path fill="#FFFFFF" stroke="#FFFFFF" stroke-width="0.3" d="M49.743,25.678c0.293,0,0.489-0.266,0.489-0.66
			c0-0.313-0.174-0.638-0.472-0.638c-0.28,0-0.5,0.291-0.5,0.661C49.261,25.411,49.462,25.678,49.743,25.678z"/>
		<path fill="#FFFFFF" stroke="#FFFFFF" stroke-width="0.3" d="M50.497,31.146c-0.013-0.002-0.027-0.004-0.038-0.005
			c-0.307-0.034-0.318-0.184-0.311-0.606c0.002-0.058,0.004-0.116,0.004-0.18v-3.66v-0.017c0.001-0.065,0.002-0.153-0.056-0.215
			c-0.021-0.024-0.062-0.056-0.124-0.056c-0.104,0-0.17,0.09-0.209,0.147c-0.011,0.011-0.017,0.023-0.03,0.04
			c-0.131,0.193-0.495,0.46-0.686,0.531c-0.013,0.003-0.022,0.009-0.035,0.013c-0.082,0.03-0.236,0.085-0.236,0.278
			c0,0.12,0.086,0.199,0.206,0.199H49.1c0.106,0,0.164,0.027,0.182,0.05c0.028,0.037,0.063,0.168,0.062,0.591v0.037v2.061
			c0,0.063,0.002,0.122,0.004,0.18c0.01,0.423-0.004,0.572-0.311,0.606c-0.013,0-0.026,0.001-0.041,0.003
			c-0.09,0.007-0.297,0.016-0.297,0.262c0,0.102,0.062,0.221,0.227,0.221c0.14,0,0.282-0.012,0.421-0.024
			c0.139-0.01,0.28-0.021,0.418-0.021c0.124,0,0.256,0.012,0.394,0.021c0.142,0.013,0.289,0.024,0.438,0.024
			c0.127,0,0.207-0.09,0.207-0.232C50.798,31.17,50.588,31.153,50.497,31.146z"/>
	</g>
	<path fill="#FFFFFF" stroke="#FFFFFF" stroke-width="0.3" d="M53.454,30.883c0-0.089-0.065-0.189-0.163-0.189
		c-0.062,0-0.105,0.046-0.183,0.12c-0.107,0.104-0.269,0.266-0.452,0.266c-0.098,0-0.174-0.031-0.233-0.097
		c-0.19-0.212-0.19-0.721-0.189-1.057v-0.022v-2.787c0-0.106,0.017-0.129,0.017-0.129c0.014-0.011,0.074-0.007,0.115-0.004
		c0.027,0.001,0.061,0.003,0.094,0.003h0.495c0.034,0,0.066,0.001,0.095,0.004c0.086,0.005,0.158,0.009,0.218-0.053
		c0.057-0.059,0.063-0.147,0.063-0.234c0-0.074,0-0.263-0.181-0.263c0,0-0.877,0-0.868,0c-0.025-0.002-0.036-0.008-0.039-0.009
		c-0.004-0.006-0.01-0.025-0.01-0.1v-0.777c0-0.22-0.12-0.244-0.172-0.244c-0.114,0-0.163,0.125-0.181,0.165
		c-0.195,0.503-0.432,0.76-0.813,1.064c-0.004,0.007-0.012,0.012-0.018,0.019c-0.05,0.044-0.12,0.11-0.12,0.227
		c0,0.054,0.018,0.104,0.053,0.139c0.074,0.074,0.193,0.072,0.3,0.062c0.007,0,0.02-0.001,0.023-0.001c0.019,0,0.038,0,0.057,0
		c0.02,0,0.042,0,0.059,0c0.002,0.014,0.005,0.04,0.005,0.087v2.83l-0.001,0.159c-0.004,0.429-0.009,0.923,0.213,1.273
		c0.158,0.24,0.426,0.385,0.716,0.385c0.321,0,0.64-0.158,0.892-0.443C53.306,31.219,53.454,31.048,53.454,30.883z"/>
	<path fill="#FFFFFF" stroke="#FFFFFF" stroke-width="0.3" d="M58.128,26.546h-1.405c-0.124,0-0.226,0.113-0.226,0.252
		c0,0.188,0.213,0.188,0.305,0.188c0.243,0,0.367,0.095,0.367,0.282c0,0.103-0.068,0.286-0.109,0.396l-0.009,0.023
		c0,0-0.648,1.871-0.895,2.586c-0.248-0.73-0.897-2.662-0.897-2.662l-0.007-0.022c-0.041-0.123-0.094-0.275-0.094-0.388
		c0-0.21,0.315-0.218,0.352-0.218c0.207,0,0.311-0.063,0.311-0.188c0-0.166-0.111-0.252-0.224-0.252H53.89
		c-0.157,0-0.269,0.104-0.269,0.252c0,0.188,0.219,0.188,0.314,0.188c0.218,0,0.309,0.232,0.423,0.585l0.04,0.121
		c0,0,1.168,3.423,1.165,3.418c0.015,0.041,0.027,0.076,0.041,0.117c0.039,0.104,0.078,0.226,0.078,0.319
		c0,0.075-0.022,0.145-0.051,0.224c-0.007,0.021-0.014,0.043-0.02,0.065l-0.303,0.866c-0.01,0.025-0.019,0.055-0.026,0.08
		c-0.042,0.135-0.075,0.226-0.142,0.246c-0.089,0.023-0.198,0.021-0.295,0.021l-0.07-0.002c-0.384,0-0.384,0.38-0.384,0.541
		c0,0.141,0.037,0.251,0.105,0.331c0.123,0.134,0.315,0.134,0.473,0.134h0.019c0.385,0,0.434-0.119,0.521-0.491
		c0,0,0.01-0.031,0.007-0.021l1.777-5.201c0.075-0.218,0.304-0.884,0.474-1.149c0.076-0.12,0.24-0.196,0.312-0.205
		c0.012-0.002,0.027-0.003,0.044-0.005c0.088-0.01,0.238-0.026,0.238-0.172C58.365,26.652,58.269,26.546,58.128,26.546z"/>
	<path fill="#FFFFFF" d="M67.581,45.79c-4.365-1.503-7.012-6.385-7.245-9.331c-0.003-0.041-0.003-0.05-0.003-11.512V24.7v-0.247
		v-0.252v-0.083h0.075h0.227h0.223h0.222h6.702h0.034h6.702h0.223h0.222h0.225h0.075v0.083v0.252V24.7v0.247v11.438
		c-0.231,2.983-2.877,7.901-7.239,9.404l-0.214,0.052L67.581,45.79z"/>
	<path fill="#8E979D" d="M74.814,24.533H74.74h-0.223h-6.703h-0.033h-6.703h-0.223h-0.075h-0.073v0.084V24.7v0.247
		c0,7.594,0,11.454,0,11.476c0.224,2.83,2.772,7.521,6.985,8.972l0.065,0.023l0.022,0.008l0.021,0.008l0.022-0.008l0.023-0.008
		l0.065-0.023c4.208-1.448,6.757-6.156,6.979-9.008V24.947V24.7v-0.083v-0.084H74.814z"/>
	<path fill="#7A003C" stroke="#7A003C" stroke-width="0.3" d="M67.827,26.151h2.352v2.476h-1.927c0,0-0.146-0.352-0.429-0.348
		c-0.278,0.003-0.422,0.348-0.422,0.348h-1.928v-2.476H67.827"/>
	<g>
		<path fill="#FEC057" stroke="#FEC057" stroke-width="0.3" d="M67.781,29.222h6.736v7.165c-0.193,2.464-2.497,7.159-6.717,8.612
			c-4.218-1.453-6.529-6.148-6.723-8.612v-7.165h6.737H67.781z"/>
		<path fill="#FEC057" stroke="#FEC057" stroke-width="0.3" d="M63.303,28.555h0.164c-0.049-0.04-0.144-0.086-0.146-0.271
			c-0.011-0.269,0.047-0.479,0.047-0.479l0.584,0.055l-0.116-0.207l0.606-0.641l-0.165-0.058l0.104-0.458l-0.378,0.09l-0.067-0.21
			l-0.268,0.334l0.071-0.791l-0.217,0.2l-0.256-0.553l0,0l-0.254,0.553l-0.218-0.2l0.07,0.791l-0.265-0.334l-0.067,0.21l-0.379-0.09
			l0.105,0.458l-0.168,0.058l0.608,0.641l-0.116,0.207l0.585-0.055c0,0,0.062,0.211,0.047,0.479
			c-0.013,0.185-0.099,0.23-0.149,0.271H63.303z"/>
		<path fill="#FEC057" stroke="#FEC057" stroke-width="0.3" d="M72.259,28.555h-0.165c0.049-0.04,0.143-0.086,0.147-0.271
			c0.01-0.269-0.047-0.479-0.047-0.479l-0.585,0.055l0.117-0.207l-0.609-0.641l0.168-0.058l-0.105-0.458l0.381,0.09l0.066-0.21
			l0.265,0.334l-0.069-0.791l0.218,0.2l0.255-0.553l0,0l0.255,0.553l0.215-0.2l-0.07,0.791l0.268-0.334l0.066,0.21l0.379-0.09
			l-0.104,0.458l0.167,0.058l-0.609,0.641l0.118,0.207l-0.585-0.055c0,0-0.063,0.211-0.048,0.479
			c0.011,0.185,0.099,0.23,0.147,0.271H72.259z"/>
		<path fill="#FEC057" stroke="#FEC057" stroke-width="0.3" d="M67.827,28.025c0.266-0.312,1,0.18,1.248,0.211
			c0.12,0.017,0.71,0.012,0.71,0.012v-2.474l-0.287-0.003c0,0-0.418,0.021-0.635-0.074c-0.215-0.1-0.774-0.318-1.036,0.114
			c-0.263-0.432-0.822-0.212-1.037-0.114c-0.217,0.097-0.636,0.074-0.636,0.074l-0.286,0.003v2.474c0,0,0.588,0.006,0.71-0.012
			C66.825,28.207,67.56,27.714,67.827,28.025z"/>
	</g>
	<path fill="#7A003C" stroke="#7A003C" stroke-width="0.3" d="M67.75,27.966c0.029,0.015,0.054,0.036,0.076,0.063
		c0.015-0.02,0.046-0.044,0.071-0.06l0.001-2.257c-0.029,0.028-0.052,0.068-0.072,0.102c-0.022-0.039-0.05-0.075-0.076-0.102V27.966
		z"/>
	<path fill="#7A003C" stroke="#7A003C" stroke-width="0.3" d="M66.882,32.294c0,0,0.683,0.049,0.736-0.601
		c0,0,0.054,0.488,0.188,0.489c0.153-0.002,0.153-0.511,0.153-0.511c0.235,0.696,0.825,0.741,0.825,0.741
		c-0.496-0.38-0.468-1.398-0.465-1.476c0.029-0.511,0.427-0.464,0.456-0.765c0.041-0.419-0.411-0.33-0.411-0.33
		s0.191,0.003,0.226,0.105c0.083,0.239-0.286,0.266-0.286,0.266c-0.451,0.132-0.605-0.166-0.769-0.198
		c-0.162-0.034-0.193,0.086-0.229,0.129c-0.033,0.042-0.728,0.088-0.872,0.257c-0.166,0.197-0.146,0.428-0.034,0.571
		c0,0,0.065-0.273,0.327-0.282c0.254-0.011,0.699,0.37,0.799,0.593c-0.112,0.007-1.105,0.075-1.233-0.029
		c-0.081-0.066-0.174-0.203-0.171-0.296c0,0-0.053,0.283,0.066,0.374c0.121,0.093,0.156,0.076,0.229,0.079
		c0.068,0.006,1.027-0.025,1.129-0.026c-0.021,0.078,0,0.287-0.211,0.307h-0.79c0,0-0.023,0.222,0.284,0.125
		c0.066-0.02,0.272-0.082,0.335,0.043C67.207,31.94,67.349,32.216,66.882,32.294z"/>
	<path fill="#7A003C" stroke="#7A003C" stroke-width="0.3" d="M67.396,39.978c-0.281,0.205-0.76,0.033-0.76,0.033
		s0.013,0.146-0.417,0.347c-0.641,0.3-1.314,1.059-0.435,2.161c0,0-0.365-1.256,0.201-1.549c0,0,0.49,0.533,1.2-0.526
		C67.33,40.229,67.396,39.978,67.396,39.978z"/>
	<path fill="#7A003C" stroke="#7A003C" stroke-width="0.3" d="M65.801,35.552c-0.021,0.329-0.067,0.34-0.334,0.489
		c0,0-0.104-0.11-0.157-0.224c-0.165-0.356,0.112-0.879,0.112-0.879c-0.302,0.417-0.739,0.276-0.739,0.276
		c0.032-0.354,0.458-0.677,0.458-0.677c-0.392,0.082-0.702-0.158-0.702-0.158c0.11-0.229,0.522-0.52,0.522-0.52
		c-0.4-0.031-0.679-0.308-0.679-0.308c0.12-0.188,0.568-0.438,0.568-0.438c-0.214-0.142-0.424-0.556-0.424-0.556
		c0.304-0.182,0.655-0.142,0.655-0.142c-0.565-0.46,0.045-1.713,0.045-1.713c-0.086,1.893,1.224,1.399,1.121,2.362
		c-0.084,0.793-0.857,0.212-0.857,0.212c-0.136,1.104,0.433,1.206,0.433,1.206s-0.027,0.267-0.036,0.548
		C65.776,35.372,65.812,35.394,65.801,35.552z"/>
	<path fill="#7A003C" stroke="#7A003C" stroke-width="0.3" d="M64.075,38.303c1.803-0.049,2.127-1.571,2.127-1.571
		c-0.174-0.281-0.203-0.429-0.203-0.429s-0.027-0.084-0.027-0.083c-0.122,0.146-0.575,0.334-0.575,0.334s-0.263-0.254-0.327-0.358
		c-0.175-0.28-0.203-0.487-0.203-0.487c-0.304,0.01-0.586-0.286-0.586-0.286c-0.015-0.312,0.1-0.573,0.1-0.573
		c-0.219-0.11-0.442-0.361-0.442-0.361c0.146-0.343,0.24-0.454,0.24-0.454c-0.346-0.3-0.358-0.483-0.358-0.483
		c0.086-0.261,0.404-0.517,0.404-0.517c-0.136-0.202-0.266-0.599-0.266-0.599c0.253-0.28,0.492-0.364,0.492-0.364
		c-0.039-0.16-0.031-0.31-0.019-0.474c0,0-2.068-1.201-2.298-1.978c0,0-0.094,0.688-0.057,1.133
		c0.035,0.397,0.585,1.043,1.918,2.033c-0.818-0.139-1.938-0.626-2.181-1.115c0,0-0.005,0.707,0.138,1.125
		c0.115,0.341,0.692,0.584,1.998,1.297c-0.645,0.394-1.788-0.043-2.113-0.409c0,0,0.183,0.615,0.395,0.993
		c0.136,0.239,0.678,0.643,1.932,0.434c-0.465,0.646-1.361,1.134-1.968,0.829c0,0,0.063,0.612,0.432,0.791
		c0.272,0.132,0.848,0.218,1.763-0.573c-0.551,1.524-1.898,1.056-1.898,1.056s0.318,0.608,0.674,0.818
		c0.313,0.187,0.963,0.036,2.016-1.237C65.178,36.796,65.112,37.923,64.075,38.303z"/>
	<path fill="#7A003C" stroke="#7A003C" stroke-width="0.3" d="M66.4,37.146c0,0,0.355,0.553,0.464,0.919
		c0,0-0.703,0.675-0.574,1.412c0,0-0.234-0.534-0.076-0.941c0.016-0.041,0.092-0.264,0.092-0.264s-0.606,0.321-1.009,0.079
		c0,0,0.433,0.057,0.91-0.784C66.459,37.119,66.4,37.146,66.4,37.146z"/>
	<path fill="#7A003C" stroke="#7A003C" stroke-width="0.3" d="M64.068,39.423c-0.082,0.004-0.4-0.124-0.481,0.142
		c-0.093,0.311,0.231,0.45,0.418,0.27c0.198-0.196,0.509-0.192,0.583-0.053c0.033,0.063,0.072,0.198-0.2,0.43
		c-0.084,0.071-0.539,0.388-0.224,0.72c0.109,0.118,0.407,0.07,0.481-0.39c0.058-0.342,0.151-0.517,0.266-0.572
		c0.057-0.029,0.241-0.092,0.342,0.002c0.025,0.024,0.089,0.077,0.089,0.077c0.167,0.122,0.372-0.023,0.329-0.222
		c-0.05-0.229-0.211-0.174-0.328-0.109c-0.088,0.046-0.197,0.007-0.197,0.007c-0.079-0.041-0.104-0.143,0.024-0.21
		c0.55-0.292,0.656-0.628,0.656-0.628c-0.264,0.036-0.483-0.055-0.483-0.055s-0.492,0.736-0.871,0.543
		c-0.122-0.065-0.17-0.287-0.172-0.39c-0.002-0.222-0.221-0.333-0.342-0.176c-0.111,0.147,0.019,0.304,0.136,0.354
		c0.068,0.028,0.176,0.13,0.135,0.21C64.185,39.447,64.125,39.418,64.068,39.423z"/>
	<path fill="#7A003C" stroke="#7A003C" stroke-width="0.3" d="M63.876,38.613c0,0-0.099,0.053-0.113,0.155
		c0,0-0.196-0.161-0.331,0.093C63.432,38.861,63.471,38.455,63.876,38.613z"/>
	<path fill="#7A003C" stroke="#7A003C" stroke-width="0.3" d="M63.403,39.64c0,0-0.046,0.11,0.042,0.277
		c0,0-0.248,0.103-0.084,0.452C63.361,40.37,63.003,39.989,63.403,39.64z"/>
	<path fill="#7A003C" stroke="#7A003C" stroke-width="0.3" d="M63.904,40.862c0,0-0.009,0.122,0.126,0.244
		c0,0-0.198,0.191,0.065,0.456C64.095,41.561,63.64,41.344,63.904,40.862z"/>
	<path fill="#7A003C" stroke="#7A003C" stroke-width="0.3" d="M65.836,40.039c0.067,0.029,0.122,0.102,0.097,0.299
		c0,0,0.244-0.279-0.092-0.493c-0.01-0.008-0.022-0.014-0.035-0.021c0,0,0.037,0.116-0.019,0.2
		C65.789,40.022,65.81,40.024,65.836,40.039z"/>
	<path fill="#7A003C" stroke="#7A003C" stroke-width="0.3" d="M69.746,40.02c-0.065,0.029-0.121,0.104-0.097,0.3
		c0,0-0.242-0.278,0.091-0.492c0.011-0.009,0.023-0.015,0.037-0.021c0,0-0.039,0.115,0.019,0.199
		C69.794,40.004,69.772,40.008,69.746,40.02z"/>
	<path fill="#7A003C" stroke="#7A003C" stroke-width="0.3" d="M67.809,32.756c0.173-0.058,0.251-0.198,0.251-0.198
		c0.117,0.171,0.469,0.265,0.64,0.279c0.411,1.202,1.304,1.933,0.478,3.564c-0.862,1.703-1.484,1.932-0.282,3.1
		c0,0-0.769,0.239-0.945-0.502c0,0,0.038,0.815-0.143,1.029c-0.177-0.214-0.143-1.017-0.143-1.017c-0.179,0.739-0.946,0.5-0.946,0.5
		c1.202-1.166,0.579-1.399-0.282-3.1c-0.824-1.633,0.074-2.365,0.486-3.567c0.188-0.021,0.504-0.111,0.646-0.281
		C67.567,32.563,67.634,32.702,67.809,32.756z"/>
	<path fill="#7A003C" stroke="#7A003C" stroke-width="0.3" d="M68.22,39.978c0.281,0.205,0.76,0.033,0.76,0.033
		s-0.014,0.146,0.413,0.347c0.645,0.3,1.318,1.059,0.438,2.161c0,0,0.363-1.256-0.201-1.549c0,0-0.491,0.533-1.201-0.526
		C68.283,40.229,68.22,39.978,68.22,39.978z"/>
	<path fill="#7A003C" stroke="#7A003C" stroke-width="0.3" d="M69.816,35.552c0.021,0.329,0.064,0.34,0.332,0.489
		c0,0,0.103-0.11,0.156-0.224c0.167-0.356-0.111-0.879-0.111-0.879c0.302,0.417,0.738,0.276,0.738,0.276
		c-0.032-0.354-0.458-0.677-0.458-0.677c0.393,0.082,0.702-0.158,0.702-0.158c-0.109-0.229-0.521-0.52-0.521-0.52
		c0.397-0.031,0.678-0.308,0.678-0.308c-0.12-0.188-0.568-0.438-0.568-0.438c0.215-0.142,0.425-0.556,0.425-0.556
		c-0.305-0.182-0.655-0.142-0.655-0.142c0.564-0.46-0.046-1.713-0.046-1.713c0.086,1.893-1.224,1.399-1.12,2.362
		c0.083,0.793,0.856,0.212,0.856,0.212c0.135,1.104-0.433,1.206-0.433,1.206s0.027,0.267,0.037,0.548
		C69.838,35.372,69.802,35.394,69.816,35.552z"/>
	<path fill="#7A003C" stroke="#7A003C" stroke-width="0.3" d="M71.54,38.303c-1.804-0.049-2.126-1.571-2.126-1.571
		c0.171-0.281,0.2-0.429,0.2-0.429s0.028-0.084,0.029-0.083c0.121,0.146,0.573,0.334,0.573,0.334s0.263-0.254,0.328-0.358
		c0.176-0.28,0.203-0.487,0.203-0.487c0.305,0.01,0.585-0.286,0.585-0.286c0.018-0.312-0.097-0.573-0.097-0.573
		c0.218-0.11,0.441-0.361,0.441-0.361c-0.146-0.343-0.242-0.454-0.242-0.454c0.348-0.3,0.359-0.483,0.359-0.483
		c-0.087-0.261-0.404-0.517-0.404-0.517c0.137-0.202,0.265-0.599,0.265-0.599c-0.25-0.28-0.49-0.364-0.49-0.364
		c0.037-0.16,0.029-0.31,0.02-0.474c0,0,2.068-1.201,2.295-1.978c0,0,0.098,0.688,0.058,1.133c-0.034,0.397-0.585,1.043-1.918,2.033
		c0.817-0.139,1.937-0.626,2.181-1.115c0,0,0.005,0.707-0.136,1.125c-0.116,0.341-0.694,0.584-1.998,1.297
		c0.645,0.394,1.784-0.043,2.11-0.409c0,0-0.181,0.615-0.395,0.993c-0.135,0.239-0.676,0.643-1.931,0.434
		c0.465,0.646,1.359,1.134,1.968,0.829c0,0-0.063,0.612-0.433,0.791c-0.272,0.132-0.845,0.218-1.763-0.573
		c0.553,1.524,1.899,1.056,1.899,1.056s-0.317,0.608-0.673,0.818c-0.314,0.187-0.965,0.036-2.018-1.237
		C70.436,36.796,70.502,37.923,71.54,38.303z"/>
	<path fill="#7A003C" stroke="#7A003C" stroke-width="0.3" d="M69.216,37.146c0,0-0.355,0.553-0.465,0.919
		c0,0,0.702,0.675,0.576,1.412c0,0,0.234-0.534,0.074-0.941c-0.014-0.041-0.092-0.264-0.092-0.264s0.609,0.321,1.009,0.079
		c0,0-0.432,0.057-0.911-0.784C69.156,37.119,69.216,37.146,69.216,37.146z"/>
	<path fill="#7A003C" stroke="#7A003C" stroke-width="0.3" d="M71.546,39.423c0.083,0.004,0.4-0.124,0.481,0.142
		c0.096,0.311-0.228,0.45-0.415,0.27c-0.201-0.196-0.513-0.192-0.582-0.053c-0.034,0.063-0.075,0.198,0.196,0.43
		c0.085,0.071,0.541,0.388,0.225,0.72c-0.11,0.118-0.405,0.07-0.482-0.39c-0.057-0.342-0.15-0.517-0.263-0.572
		c-0.059-0.029-0.244-0.092-0.341,0.002c-0.026,0.024-0.092,0.077-0.092,0.077c-0.165,0.122-0.37-0.023-0.327-0.222
		c0.049-0.229,0.212-0.174,0.327-0.109c0.089,0.046,0.198,0.007,0.198,0.007c0.077-0.041,0.103-0.143-0.024-0.21
		c-0.551-0.292-0.659-0.628-0.659-0.628c0.266,0.036,0.484-0.055,0.484-0.055s0.492,0.736,0.871,0.543
		c0.124-0.065,0.17-0.287,0.173-0.39c0.002-0.222,0.221-0.333,0.341-0.176c0.114,0.147-0.018,0.304-0.136,0.354
		c-0.067,0.028-0.175,0.13-0.133,0.21C71.429,39.447,71.492,39.418,71.546,39.423z"/>
	<path fill="#7A003C" stroke="#7A003C" stroke-width="0.3" d="M71.737,38.613c0,0,0.101,0.053,0.117,0.155
		c0,0,0.195-0.161,0.329,0.093C72.181,38.861,72.145,38.455,71.737,38.613z"/>
	<path fill="#7A003C" stroke="#7A003C" stroke-width="0.3" d="M72.213,39.64c0,0,0.046,0.11-0.041,0.277
		c0,0,0.245,0.103,0.083,0.452C72.254,40.37,72.611,39.989,72.213,39.64z"/>
	<path fill="#7A003C" stroke="#7A003C" stroke-width="0.3" d="M71.713,40.862c0,0,0.007,0.122-0.128,0.244
		c0,0,0.198,0.191-0.065,0.456C71.52,41.561,71.975,41.344,71.713,40.862z"/>
	<path fill="#7A003C" stroke="#7A003C" stroke-width="0.3" d="M67.806,40.606c0.055-0.029,0.109-0.04,0.178-0.116
		c0,0,0.463,1.213,1.502,1.09c0,0-0.061,0.258-0.471,0.288c0,0,0.703,0.361,0.3,0.729c-0.266,0.242-0.475-0.433-0.475-0.433
		s-0.032,0.618-0.512,0.624c0,0,0.713-0.465-0.032-1.552c0.069,0.761-0.169,1.472-0.49,1.472l0,0c-0.322,0-0.561-0.71-0.488-1.472
		c-0.747,1.087-0.032,1.552-0.032,1.552c-0.48-0.006-0.511-0.624-0.511-0.624s-0.21,0.675-0.478,0.433
		c-0.405-0.367,0.302-0.729,0.302-0.729c-0.412-0.031-0.473-0.288-0.473-0.288c1.042,0.123,1.504-1.09,1.504-1.09
		C67.698,40.567,67.752,40.577,67.806,40.606z"/>
	<path fill="#FEC057" stroke="#FEC057" stroke-width="0.3" d="M67.709,30.502l-0.011-0.037l-0.031-0.139l-0.008-0.034l-0.029,0.012
		l-0.559,0.244l0,0l0.3-0.018c-0.007,0.016-0.018,0.044-0.018,0.064c0,0.077,0.056,0.14,0.124,0.14c0.069,0,0.126-0.063,0.126-0.14
		c0-0.029-0.009-0.057-0.022-0.079l0.095-0.012L67.709,30.502z"/>
	<path fill="#FEC057" stroke="#FEC057" stroke-width="0.3" d="M69.244,34.859c-0.095-0.219-0.205-0.286-0.306-0.322
		c-0.013-0.034-0.027-0.067-0.047-0.097c-0.131-0.208-0.34-0.235-0.492-0.171c-0.052,0.022-0.086,0.044-0.112,0.061l0.034-0.051
		c0.003-0.006,0.006-0.008,0.008-0.013c0.023-0.036,0.048-0.071,0.08-0.169c0.058-0.168,0.031-0.401-0.153-0.545
		c-0.027-0.023-0.057-0.04-0.085-0.053c-0.033-0.109-0.094-0.234-0.29-0.344l-0.055-0.029l-0.055,0.029
		c-0.195,0.109-0.255,0.231-0.288,0.344c-0.03,0.013-0.059,0.029-0.087,0.053c-0.186,0.145-0.211,0.378-0.153,0.545
		c0.033,0.098,0.057,0.133,0.081,0.169c0.002,0.005,0.005,0.007,0.006,0.013l0.04,0.054c-0.028-0.018-0.063-0.037-0.121-0.063
		c-0.15-0.064-0.361-0.037-0.491,0.171c-0.018,0.03-0.034,0.063-0.046,0.097c-0.098,0.035-0.21,0.103-0.31,0.322l-0.025,0.059
		l0.025,0.063c0.1,0.218,0.209,0.283,0.31,0.321c0.012,0.034,0.028,0.065,0.046,0.097c0.13,0.206,0.341,0.233,0.491,0.171
		c0.086-0.038,0.121-0.063,0.152-0.091c0.004-0.002,0.006-0.006,0.008-0.008c0,0,0.031-0.024,0.058-0.045v0.557l-0.059-0.056
		l-0.076,0.117c-0.002,0.003-0.005,0.007-0.007,0.012c-0.024,0.036-0.047,0.072-0.081,0.169c-0.058,0.168-0.032,0.4,0.154,0.547
		c0.026,0.021,0.056,0.039,0.086,0.051c0.031,0.108,0.093,0.233,0.289,0.345l0.054,0.029l0.056-0.029
		c0.194-0.11,0.256-0.233,0.289-0.345c0.028-0.012,0.058-0.029,0.085-0.051c0.187-0.146,0.211-0.38,0.154-0.547
		c-0.033-0.097-0.057-0.133-0.081-0.169c-0.002-0.005-0.005-0.009-0.008-0.012c0,0-0.074-0.115-0.075-0.115l-0.059,0.054v-0.556
		l0.054,0.043c0.003,0.003,0.005,0.006,0.008,0.009c0.032,0.028,0.066,0.053,0.151,0.089c0.151,0.065,0.361,0.039,0.492-0.168
		c0.019-0.032,0.035-0.063,0.047-0.098c0.096-0.034,0.21-0.102,0.307-0.32l0.027-0.063L69.244,34.859z"/>
	<path fill="#7A003C" stroke="#7A003C" stroke-width="0.3" d="M68.95,34.904c-0.001-0.001-0.108-0.168-0.263-0.127
		c0.02-0.049,0.026-0.115-0.015-0.184c-0.063-0.098-0.154-0.09-0.195-0.07l-0.024,0.013l0.015,0.023c0,0,0.019,0.026,0.022,0.063
		c0.003,0.035-0.001,0.09-0.059,0.141c-0.032,0.025-0.11,0.03-0.14,0.028h-0.354c0-0.11,0-0.594,0-0.594
		c0-0.03,0.002-0.119,0.025-0.151c0.043-0.066,0.094-0.071,0.127-0.066c0.032,0.004,0.056,0.023,0.056,0.023l0.021,0.021l0.01-0.028
		c0.018-0.046,0.025-0.149-0.063-0.219c-0.06-0.046-0.12-0.041-0.165-0.017c0.039-0.173-0.113-0.291-0.113-0.292
		c0,0-0.005-0.005-0.006-0.005h-0.008h-0.006l-0.006,0.005c-0.002,0.001-0.15,0.119-0.113,0.292
		c-0.045-0.022-0.104-0.029-0.166,0.017c-0.089,0.069-0.079,0.172-0.063,0.219l0.009,0.028l0.021-0.018c0,0,0.025-0.022,0.059-0.026
		c0.032-0.004,0.081,0,0.125,0.067c0.021,0.03,0.026,0.114,0.025,0.147l-0.002,0.001v0.002v0.594c-0.079,0-0.368,0-0.368,0
		c-0.03,0.002-0.109-0.003-0.139-0.028c-0.061-0.051-0.063-0.105-0.062-0.141c0.004-0.037,0.022-0.063,0.022-0.063l0.017-0.023
		l-0.024-0.013c-0.039-0.019-0.134-0.027-0.195,0.07c-0.043,0.068-0.036,0.134-0.015,0.184c-0.153-0.041-0.264,0.126-0.264,0.127
		l-0.005,0.007v0.005v0.01l0.005,0.006c0,0.002,0.11,0.17,0.264,0.127c-0.02,0.049-0.029,0.116,0.015,0.182
		c0.062,0.102,0.154,0.091,0.195,0.073l0.024-0.013l-0.016-0.023c-0.001,0-0.019-0.027-0.023-0.063
		c-0.002-0.038,0.001-0.092,0.062-0.142c0.028-0.022,0.103-0.027,0.132-0.027l0,0h0.004h0.37v1.072c0,0,0,0.002,0.001,0.005l0,0
		c0.003,0.032-0.003,0.114-0.023,0.146c-0.045,0.065-0.093,0.07-0.125,0.066c-0.034-0.003-0.06-0.022-0.06-0.024l-0.021-0.02
		l-0.011,0.028c-0.016,0.047-0.024,0.15,0.064,0.219c0.061,0.047,0.119,0.04,0.165,0.017c-0.038,0.171,0.111,0.291,0.113,0.292
		l0.007,0.004h0.006h0.007l0.007-0.004c0-0.001,0.148-0.121,0.112-0.292c0.043,0.021,0.104,0.03,0.164-0.017
		c0.09-0.068,0.082-0.172,0.065-0.219l-0.01-0.025l-0.022,0.017c0,0-0.024,0.021-0.056,0.024c-0.034,0.004-0.083,0-0.128-0.066
		c-0.023-0.033-0.024-0.122-0.023-0.154c0,0,0-0.913,0-1.069h0.354c0,0,0.004,0,0.005-0.002l0,0c0.03,0,0.103,0.006,0.132,0.028
		c0.059,0.05,0.063,0.104,0.06,0.142c-0.004,0.037-0.021,0.063-0.021,0.063l-0.018,0.023l0.024,0.013
		c0.041,0.017,0.133,0.026,0.197-0.072c0.04-0.067,0.035-0.133,0.013-0.183c0.155,0.042,0.262-0.126,0.264-0.126l0.005-0.006v-0.011
		v-0.005L68.95,34.904z"/>
</g>
<g id="Layer_2" display="none">
	
		<rect x="53.576" y="16.524" display="inline" fill="#FFFFFF" stroke="#000000" stroke-miterlimit="10" width="29.984" height="29.983"/>
</g>
</svg>
